<?xml version="1.0" encoding="utf-8"?>
<!-- Generator: Adobe Illustrator 19.2.1, SVG Export Plug-In . SVG Version: 6.00 Build 0)  -->
<svg version="1.1" id="Layer_1" xmlns="http://www.w3.org/2000/svg" xmlns:xlink="http://www.w3.org/1999/xlink" x="0px" y="0px"
	 width="779.4px" height="176.4px" viewBox="0 0 779.4 176.4" style="enable-background:new 0 0 779.4 176.4;" xml:space="preserve"
	>
<style type="text/css">
	.st0{fill:none;}
	.st1{fill-rule:evenodd;clip-rule:evenodd;}
</style>
<polyline class="st0" points="0,232.3 0,-37.2 779.4,-37.2 779.4,232.3 "/>
<path class="st1" d="M730.5,55.1c4.9,1.6,10.2-1,11.8-5.8c1.6-4.8-1.1-10-6.1-11.7c-4.9-1.6-10.2,1-11.8,5.8
	C722.8,48.3,725.5,53.5,730.5,55.1 M737.2,0l42.2,48.8l-49.1,41.6l-42.2-48L737.2,0z M702,70.6c0.5-0.5,1.1-1.1,1.6-1.7l1.4,1.3
	c-0.5,0.6-1.1,1.2-1.6,1.7L702,70.6z M684.2,79.3l0,1.9c-1.5,0-3-0.3-4.4-0.7l0.5-1.8C681.5,79.1,682.9,79.3,684.2,79.3 M674.4,89.2
	c1.5-0.4,2.8-1,4.1-1.7l0.9,1.6c-1.4,0.8-2.9,1.4-4.5,1.9L674.4,89.2z M674.2,55l-0.2,0.1c-1.3,0.4-2.3,1.1-3.1,2.2l-1.5-1.2
	c1.1-1.3,2.4-2.3,3.9-2.8l0.4-0.1L674.2,55z M677,77.3l-0.9,1.6c-1.4-0.8-2.8-1.8-3.9-2.9l1.3-1.3C674.6,75.7,675.7,76.6,677,77.3
	 M695.6,75.9c1.2-0.8,2.5-1.7,3.7-2.7l1.2,1.4c-1.3,1.1-2.6,2-3.9,2.8L695.6,75.9z M687.6,78.7l-1.8-0.4c0.4-1.2,0.7-2.5,1-3.9
	l1.8,0.3C688.4,76.1,688,77.4,687.6,78.7 M683.8,82.3l1.6,0.9c-0.8,1.3-1.8,2.5-2.8,3.5l-1.3-1.4C682.3,84.5,683.1,83.5,683.8,82.3
	 M689,80.7l-0.4-1.8c1.3-0.3,2.5-0.7,3.8-1.3l0.8,1.7C691.8,79.9,690.4,80.4,689,80.7 M669.4,68c0.1,0.3,0.2,0.7,0.3,1
	c0.4,1,0.9,2,1.5,2.9l-1.6,1c-0.7-1.1-1.3-2.2-1.7-3.3c-0.1-0.4-0.3-0.8-0.4-1.2L669.4,68z M682.4,55.2l-1.1,1.5
	c-1.2-0.9-2.5-1.5-3.8-1.8l0.4-1.8C679.4,53.4,680.9,54.1,682.4,55.2 M668.8,64.5l-1.9,0.1c0-0.3,0-0.6,0-0.9c0-1.4,0.2-2.8,0.6-4
	l1.8,0.5c-0.3,1.1-0.5,2.3-0.5,3.5C668.8,64,668.8,64.3,668.8,64.5 M687.1,69.9c0-1.2-0.1-2.5-0.2-3.6l1.9-0.3
	c0.2,1.2,0.3,2.5,0.3,3.9c0,0.3,0,0.6,0,1l-1.9-0.1C687.1,70.5,687.1,70.2,687.1,69.9 M687.7,62.2l-1.7,0.7
	c-0.6-1.4-1.3-2.7-2.2-3.8l1.5-1.2C686.2,59.2,687,60.6,687.7,62.2 M666.4,90c1.6,0.1,3.1,0,4.5-0.1l0.2,1.9
	c-1.1,0.1-2.2,0.2-3.4,0.2c-0.5,0-1,0-1.5,0L666.4,90z M660.2,91.2l0.3-1.8c0.8,0.1,1.5,0.3,2.3,0.4l-0.3,1.9
	C661.7,91.4,661,91.3,660.2,91.2 M626.9,42.7c20.8,1.5,34.2,21.9,28,41.4c-4.5,13.9-18.3,23.1-32.8,21.8c-6.2-0.6-11.8-2.8-16.3-6.3
	l25.7-13.7c4-2.3,6.8-6.7,6.7-12.1c-0.1-4.8-3.1-9.4-7.4-11.4c-6.1-2.9-12.7-0.9-16.4,3.7c1.2,0.2,2.3,0.9,2.9,2l6.9,12.4
	c1,1.9,0.3,4.3-1.6,5.3c0,0-33.2,17.7-33.8,17.8c-4.2,1.4-9,0.7-12.7-2.2c0,0-13.8-9.2-13.9-9.4l-5.6,5.7l28.4,22.2
	c3.7,2.9,5.5,7.4,5.2,11.8v43.1h-24.4v-38.9l-32.9-25.7l0.2,29.9c0,7.5-6.1,13.7-13.7,13.7h-44.4v-24.4h33.6l-0.2-31.8
	c0-3,1.3-5.6,3.3-7.4l25.4-25.7l-6.3-3.5l-26.2,14c-1.9,1-4.3,0.3-5.3-1.6L494,62.1c-1-1.9-0.3-4.3,1.6-5.3L524,41.6
	c1.9-1,4-1.5,6-1.6c0.1,0,42.9,0,42.9,0c7.5,0,13.7,6.1,13.7,13.7l0,26.4l6.5-3.5c-0.4-5.1,0.5-10.4,2.9-15.5
	C601.4,49.1,613.9,41.7,626.9,42.7 M625.3,71.9c1.3,0.3,2.1,1.6,1.8,2.8c-0.3,1.3-1.6,2.1-2.9,1.8c-1.3-0.3-2.1-1.6-1.8-2.8
	C622.7,72.5,624,71.7,625.3,71.9 M593.3,47.6c-10.1-2.3-16.5-12.3-14.3-22.5c2.3-10.1,12.3-16.5,22.5-14.3
	c10.1,2.3,16.5,12.3,14.3,22.5C613.5,43.5,603.5,49.9,593.3,47.6 M392.6,133.2h14.3c4.4,0,7.8-1.3,10.4-3.8c2.6-2.5,3.9-6,3.9-10.2
	c0-2.9-0.8-5-2.5-6.6c-1.7-1.5-4.1-2.3-7.3-2.3h-14.3L392.6,133.2z M440.1,134.8c-3.5,5.7-8.4,10-14.8,13l11.3,26.9h-28l-6.7-22.4
	h-13.1l-4.5,22.4h-24.8l16.7-83.5h39.1c9.7,0,17.1,2.1,22.3,6.2c5.2,4.1,7.7,10,7.7,17.6C445.3,122.6,443.6,129.1,440.1,134.8
	 M356,110.3h-43.6l-2.6,13.1h39.5l-3.8,19.1h-39.5l-2.7,13.2H348l-3.8,19.1h-69.5l16.7-83.5h68.4L356,110.3z M256,91.3h25.4
	l-46.1,83.5h-25.6l-18.2-83.5H218l9.5,57.9L256,91.3z M124.7,113.6c-3.5,2.2-6.4,5.2-8.5,9c-2.1,3.8-3.2,8-3.2,12.5
	c0,3.9,0.8,7.4,2.4,10.5c1.6,3.1,3.8,5.6,6.6,7.4c2.8,1.8,5.8,2.7,9.2,2.7c4,0,7.7-1.1,11.1-3.3c3.4-2.2,6.1-5.3,8.2-9.1
	c2-3.9,3-8.1,3-12.7c0-3.8-0.8-7.3-2.3-10.4c-1.5-3.1-3.6-5.5-6.3-7.3c-2.7-1.8-5.7-2.7-9.1-2.7
	C131.9,110.3,128.2,111.4,124.7,113.6 M159,94.8c6.3,3.4,11.2,8,14.7,14c3.5,6,5.2,12.7,5.2,20.3c0,8.8-2.2,16.8-6.7,24.1
	c-4.4,7.2-10.5,12.9-18.2,17.1c-7.7,4.2-16.1,6.3-25.3,6.3c-8,0-15.2-1.7-21.4-5.1c-6.3-3.4-11.2-8.1-14.7-14.1
	c-3.5-6-5.2-12.8-5.2-20.4c0-8.8,2.2-16.8,6.7-24c4.4-7.2,10.5-12.8,18.2-16.9c7.7-4.1,16.1-6.1,25.3-6.1
	C145.6,89.7,152.8,91.4,159,94.8 M67.9,93.8c6,2.7,10.9,6.3,14.8,10.8l-16.2,17c-2.3-3.5-5.1-6.3-8.5-8.3c-3.4-2-6.8-3-10.2-3
	c-4,0-7.7,1.1-11.1,3.2c-3.4,2.1-6.1,5.1-8.2,8.8c-2,3.7-3,7.9-3,12.4c0,3.8,0.8,7.2,2.3,10.2c1.5,3,3.6,5.4,6.4,7.1
	c2.7,1.7,5.8,2.6,9.2,2.6c3.3,0,6.8-0.9,10.5-2.7c3.8-1.8,7.2-4.1,10.3-7.1L77,160.2c-5,4.9-10.9,8.9-17.6,11.8
	c-6.7,2.9-13.2,4.4-19.5,4.4c-7.8,0-14.7-1.7-20.7-5.1c-6-3.4-10.7-8.1-14.1-14.1c-3.4-6-5.1-12.8-5.1-20.4c0-8.8,2.2-16.8,6.6-24
	c4.4-7.2,10.4-12.8,18-16.9c7.6-4.1,15.9-6.1,25-6.1C55.8,89.7,61.9,91.1,67.9,93.8 M429.4,41c3.6-2.9,5.3-7.1,5.3-12.6
	c0-3.6-1.2-6.3-3.7-8.2c-2.5-1.9-6.1-2.8-10.8-2.8h-16.3l-5.6,28h16.1C420.8,45.4,425.8,43.9,429.4,41 M438.4,42.5
	c-3.2,4.3-7.8,7.4-13.6,9.2l10.4,21.5h-10l-8.6-20c-0.8,0.1-2,0.1-3.6,0.1h-16.2l-4,19.9H384l12.8-63.8h25c6.9,0,12.3,1.5,16,4.6
	c3.7,3,5.6,7.3,5.6,12.8C443.3,32.9,441.6,38.2,438.4,42.5 M329.8,20.3c-4.2,2.4-7.6,5.7-10.1,9.8c-2.5,4.1-3.8,8.6-3.8,13.4
	c0,4.1,1,7.9,3,11.3c2,3.4,4.7,6.1,8.1,8.1c3.4,2,7.2,3,11.3,3c4.7,0,9.2-1.2,13.3-3.7c4.2-2.5,7.5-5.8,10-9.9
	c2.5-4.2,3.7-8.6,3.7-13.4c0-4.1-1-7.9-2.9-11.3c-1.9-3.4-4.6-6-8-8c-3.4-1.9-7.1-2.9-11.2-2.9C338.5,16.7,334,17.9,329.8,20.3
	 M359.5,12.7c4.6,2.6,8.3,6.1,10.9,10.6c2.6,4.5,4,9.5,4,15c0,6.4-1.7,12.3-5.1,17.8c-3.4,5.5-7.9,9.8-13.6,13
	c-5.7,3.2-11.8,4.8-18.4,4.8c-5.8,0-11-1.3-15.6-3.9c-4.6-2.6-8.2-6.2-10.9-10.7c-2.6-4.5-4-9.5-4-15c0-6.4,1.7-12.4,5.1-17.8
	c3.4-5.4,7.9-9.7,13.5-12.8c5.6-3.2,11.8-4.7,18.3-4.7C349.6,8.9,354.8,10.1,359.5,12.7 M303.5,17.4h-32.8l-4.2,20.9H296l-1.5,7.9
	H265l-5.4,27h-8.7l12.8-63.8h41.5L303.5,17.4z M206.3,9.3h17.4L211,73.2h-16.2l-19.9-35.4l-7.1,35.4h-17.5l12.8-63.9h16.2l20,35.7
	L206.3,9.3z M142.6,46.2c-1.1,5.6-3.2,10.6-6.4,14.7c-3.2,4.2-7.1,7.4-11.9,9.7C119.4,72.8,114,74,108,74c-5.3,0-9.9-0.9-13.9-2.6
	c-4-1.8-7-4.3-9.2-7.6c-2.1-3.3-3.2-7.1-3.2-11.6c0-2.1,0.2-4.1,0.6-6l7.4-36.9h18.9l-7.4,36.9c-0.2,1-0.3,1.9-0.3,2.8
	c0,2.9,0.8,5.1,2.5,6.7c1.7,1.6,3.9,2.4,6.7,2.4c3.2,0,6-1.1,8.5-3.2c2.4-2.2,4-5.1,4.7-8.7L131,9.3h19L142.6,46.2z M70.1,42.6
	c-2.6,4.3-6.4,7.7-11.3,10l8.7,20.6H46L40.9,56h-10l-3.5,17.1H8.5L21.2,9.3h29.9c7.4,0,13.1,1.6,17,4.7c4,3.2,5.9,7.7,5.9,13.5
	C74,33.2,72.7,38.3,70.1,42.6 M33.8,41.4h10.9c3.3,0,6-1,8-2.9c2-1.9,3-4.6,3-7.8c0-2.2-0.6-3.9-1.9-5c-1.3-1.2-3.1-1.7-5.6-1.7
	H37.2L33.8,41.4z"/>
</svg>
